<svg xmlns="http://www.w3.org/2000/svg" xmlns:xlink="http://www.w3.org/1999/xlink" width="1080" zoomAndPan="magnify" viewBox="0 0 810 809.999993" height="1080" preserveAspectRatio="xMidYMid meet" version="1.0"><defs><clipPath id="e95e1e4c14"><path d="M 34 0 L 810 0 L 810 772 L 34 772 Z M 34 0 " clip-rule="nonzero"/></clipPath><clipPath id="bee8e743d5"><path d="M 160.808594 -5.25 L 821.78125 124.050781 L 695.070312 771.773438 L 34.101562 642.472656 Z M 160.808594 -5.25 " clip-rule="nonzero"/></clipPath><clipPath id="72c38dfa08"><path d="M 91 97 L 776 97 L 776 764 L 91 764 Z M 91 97 " clip-rule="nonzero"/></clipPath><clipPath id="7bb9f70ea8"><path d="M 126.808594 -5.25 L 787.78125 124.050781 L 661.070312 771.773438 L 0.101562 642.472656 Z M 126.808594 -5.25 " clip-rule="nonzero"/></clipPath><clipPath id="661f895c0f"><path d="M 787.734375 124.042969 L 126.765625 -5.257812 L 0.0546875 642.464844 L 661.027344 771.765625 Z M 787.734375 124.042969 " clip-rule="nonzero"/></clipPath><clipPath id="d0208f6c39"><path d="M 1490.113281 261.445312 L 126.949219 -5.222656 L 0.242188 642.5 L 1363.402344 909.167969 Z M 1490.113281 261.445312 " clip-rule="nonzero"/></clipPath><clipPath id="c1d9355da2"><path d="M 1488.433594 252.996094 L 132.042969 -12.347656 L 3.769531 643.367188 L 1360.160156 908.710938 Z M 1488.433594 252.996094 " clip-rule="nonzero"/></clipPath><clipPath id="3d572fb049"><path d="M 62 158 L 776 158 L 776 771.839844 L 62 771.839844 Z M 62 158 " clip-rule="nonzero"/></clipPath><clipPath id="37471c8e7d"><path d="M 126.808594 -5.25 L 787.78125 124.050781 L 661.070312 771.773438 L 0.101562 642.472656 Z M 126.808594 -5.25 " clip-rule="nonzero"/></clipPath><clipPath id="5833ea9c44"><path d="M 787.734375 124.042969 L 126.765625 -5.257812 L 0.0546875 642.464844 L 661.027344 771.765625 Z M 787.734375 124.042969 " clip-rule="nonzero"/></clipPath><clipPath id="f769252c26"><path d="M 1490.113281 261.445312 L 126.949219 -5.222656 L 0.242188 642.5 L 1363.402344 909.167969 Z M 1490.113281 261.445312 " clip-rule="nonzero"/></clipPath><clipPath id="4a34890171"><path d="M 1488.433594 252.996094 L 132.042969 -12.347656 L 3.769531 643.367188 L 1360.160156 908.710938 Z M 1488.433594 252.996094 " clip-rule="nonzero"/></clipPath><clipPath id="8b4fa0f871"><path d="M 65 93 L 776 93 L 776 771.839844 L 65 771.839844 Z M 65 93 " clip-rule="nonzero"/></clipPath><clipPath id="f01d754a2f"><path d="M 126.808594 -5.25 L 787.78125 124.050781 L 661.070312 771.773438 L 0.101562 642.472656 Z M 126.808594 -5.25 " clip-rule="nonzero"/></clipPath><clipPath id="fffce39f96"><path d="M 787.734375 124.042969 L 126.765625 -5.257812 L 0.0546875 642.464844 L 661.027344 771.765625 Z M 787.734375 124.042969 " clip-rule="nonzero"/></clipPath><clipPath id="6d238f0612"><path d="M 1490.113281 261.445312 L 126.949219 -5.222656 L 0.242188 642.5 L 1363.402344 909.167969 Z M 1490.113281 261.445312 " clip-rule="nonzero"/></clipPath><clipPath id="a42ed7f9db"><path d="M 1488.433594 252.996094 L 132.042969 -12.347656 L 3.769531 643.367188 L 1360.160156 908.710938 Z M 1488.433594 252.996094 " clip-rule="nonzero"/></clipPath><clipPath id="5867551cc1"><rect x="0" width="776" y="0" height="772"/></clipPath></defs><rect x="-81" width="972" fill="#ffffff" y="-80.999999" height="971.999992" fill-opacity="1"/><rect x="-81" width="972" fill="#333438" y="-80.999999" height="971.999992" fill-opacity="1"/><g clip-path="url(#e95e1e4c14)"><g clip-path="url(#bee8e743d5)"><g transform="matrix(1, 0, 0, 1, 34, 0.000000000000039746)"><g clip-path="url(#5867551cc1)"><g clip-path="url(#72c38dfa08)"><g clip-path="url(#7bb9f70ea8)"><g clip-path="url(#661f895c0f)"><g clip-path="url(#d0208f6c39)"><g clip-path="url(#c1d9355da2)"><path fill="#ff964f" d="M 1267.039062 227.660156 C 1244.246094 214.125 1225.214844 209.535156 1209.839844 213.777344 C 1194.503906 218.027344 1177.636719 239.214844 1159.273438 277.390625 C 1140.957031 315.53125 1135.121094 340.703125 1141.808594 352.910156 C 1148.496094 365.117188 1159.875 376.417969 1175.988281 386.820312 C 1192.101562 397.222656 1206.648438 410.964844 1219.683594 428.019531 C 1232.667969 445.101562 1238.332031 462.535156 1236.667969 480.359375 C 1234.960938 498.175781 1230.34375 512.683594 1222.675781 523.910156 C 1215.054688 535.140625 1201.289062 545.121094 1181.410156 553.957031 C 1161.542969 562.746094 1141.105469 565.132812 1120.15625 561.035156 C 1099.160156 556.925781 1086.761719 550.851562 1082.855469 542.839844 C 1078.996094 534.835938 1071.824219 529.78125 1061.328125 527.730469 C 1050.828125 525.675781 1040.476562 518.226562 1030.320312 505.339844 C 1020.121094 492.445312 1010.480469 486 1001.398438 486.046875 C 992.316406 486.09375 974.050781 500.667969 946.5625 529.765625 C 919.117188 558.871094 904.167969 579.566406 901.78125 591.777344 C 899.382812 604.03125 904.339844 620.414062 916.644531 640.96875 C 928.949219 661.527344 942.679688 679.667969 957.773438 695.300781 C 972.855469 710.972656 993.679688 725.035156 1020.292969 737.488281 C 1046.902344 749.945312 1078.882812 758.027344 1116.289062 761.695312 C 1153.683594 765.40625 1176.542969 764.40625 1184.890625 758.789062 C 1193.238281 753.171875 1205.8125 749.292969 1222.5625 747.097656 C 1239.351562 744.957031 1248.074219 742.101562 1248.75 738.632812 C 1249.4375 735.121094 1256.050781 733.722656 1268.648438 734.363281 C 1281.203125 734.992188 1301.585938 723.570312 1329.765625 700.035156 C 1357.988281 676.507812 1372.78125 661.253906 1374.148438 654.269531 C 1375.515625 647.289062 1380.1875 641.816406 1388.195312 637.957031 C 1396.242188 634.105469 1400.542969 625.871094 1401.226562 613.28125 C 1401.871094 600.6875 1404.113281 593.875 1407.925781 592.796875 C 1411.785156 591.726562 1414.660156 572.363281 1416.617188 534.625 C 1418.527344 496.875 1416.992188 463.011719 1411.964844 432.984375 C 1406.941406 402.953125 1393.558594 369.507812 1371.742188 332.546875 C 1349.917969 295.625 1335.511719 276.484375 1328.527344 275.117188 C 1321.546875 273.753906 1315.207031 268.863281 1309.589844 260.515625 C 1303.96875 252.164062 1289.789062 241.226562 1267.039062 227.660156 Z M 286.558594 110.027344 C 285.488281 106.167969 277.09375 102.703125 261.371094 99.625 C 245.644531 96.550781 230.949219 97.320312 217.371094 101.917969 C 203.753906 106.503906 189.660156 113.734375 175.011719 123.589844 C 160.414062 133.410156 149.277344 143.957031 141.609375 155.175781 C 133.992188 166.363281 128.988281 182.621094 126.640625 203.957031 C 124.289062 225.296875 121.195312 236.457031 117.335938 237.523438 C 113.480469 238.59375 110.546875 248.917969 108.550781 268.453125 C 106.546875 288.035156 102.753906 302.753906 97.238281 312.527344 C 91.671875 322.335938 90.371094 342.96875 93.292969 374.410156 C 96.226562 405.8125 102.429688 434.246094 111.996094 459.691406 C 121.511719 485.175781 135.429688 511.476562 153.730469 538.675781 C 171.992188 565.824219 183.734375 579.929688 189.007812 580.960938 C 194.234375 581.984375 197.066406 586.140625 197.449219 593.511719 C 197.796875 600.832031 219.871094 617.824219 263.664062 644.542969 C 307.457031 671.257812 346.976562 687.195312 382.277344 692.277344 C 417.585938 697.359375 438.386719 697.78125 444.636719 693.578125 C 450.886719 689.375 459.304688 688.285156 469.757812 690.328125 C 480.253906 692.382812 493.195312 691.265625 508.527344 687.015625 C 523.90625 682.773438 533.835938 678.378906 538.339844 673.785156 C 542.875 669.246094 549.496094 667.804688 558.238281 669.515625 C 566.976562 671.226562 590.507812 657.679688 628.796875 628.875 C 667.125 600.074219 689.542969 573.585938 696.039062 549.460938 C 702.585938 525.339844 694.988281 499.367188 673.21875 471.484375 C 651.4375 443.652344 637.238281 428.148438 630.550781 425.019531 C 623.902344 421.941406 616.527344 413.246094 608.433594 398.9375 C 600.375 384.640625 590.003906 372.628906 577.402344 362.910156 C 564.757812 353.1875 554.777344 348.496094 547.449219 348.890625 C 540.121094 349.28125 535.757812 352.941406 534.382812 359.96875 C 533.015625 366.949219 518.609375 380.457031 491.074219 400.46875 C 463.582031 420.492188 434.449219 430.25 403.695312 429.660156 C 372.972656 429.125 352.152344 424.136719 341.320312 414.722656 C 330.429688 405.339844 325.5 393.476562 326.476562 379.167969 C 327.449219 364.855469 331.433594 353.828125 338.371094 346.109375 C 345.351562 338.402344 356.046875 311.445312 370.554688 265.265625 C 385.007812 219.117188 385.054688 186.476562 370.660156 167.289062 C 356.257812 148.144531 338.902344 134.765625 318.585938 127.191406 C 298.324219 119.578125 287.636719 113.835938 286.558594 110.027344 Z M 286.558594 110.027344 " fill-opacity="1" fill-rule="evenodd"/></g></g></g></g></g><g clip-path="url(#3d572fb049)"><g clip-path="url(#37471c8e7d)"><g clip-path="url(#5833ea9c44)"><g clip-path="url(#f769252c26)"><g clip-path="url(#4a34890171)"><path fill="#c26f37" d="M 127.929688 158.871094 C 123.574219 162.574219 119.242188 166.367188 114.835938 170.105469 C 106.070312 177.539062 100.378906 192.75 97.664062 216.035156 C 94.914062 239.269531 91.644531 251.503906 87.800781 252.59375 C 83.914062 253.671875 80.832031 264.007812 78.808594 283.753906 C 78.75 284.527344 78.527344 284.941406 78.429688 285.703125 C 80.855469 277.992188 84.320312 269.199219 89.671875 258.289062 C 92.023438 253.554688 94.554688 248.625 97.296875 243.550781 C 100.824219 237.023438 104.445312 230.511719 108.132812 224.105469 C 109.511719 221.753906 114.3125 213.683594 114.378906 213.558594 C 115.003906 212.484375 116.507812 212.089844 117.582031 212.710938 C 118.644531 213.378906 118.898438 214.671875 118.277344 215.746094 C 118.152344 215.90625 113.351562 223.980469 112.027344 226.292969 C 108.34375 232.65625 104.824219 239.136719 101.347656 245.632812 C 98.660156 250.671875 96.054688 255.539062 93.753906 260.238281 C 86.363281 275.210938 81.628906 287.433594 80.203125 295.660156 C 78.726562 304.382812 80.738281 307.03125 87.886719 304.796875 C 94.5 302.734375 101.117188 296.164062 113.734375 280.792969 C 121.21875 271.679688 122.125 270.574219 125.121094 267.25 C 126.398438 265.890625 127.34375 265.292969 128.488281 264.136719 C 133.300781 221.445312 134.296875 195.429688 130.308594 189.5 C 126.03125 183.144531 124.464844 176.585938 125.839844 169.542969 Z M 127.996094 271.121094 C 125.367188 273.964844 124.222656 275.121094 117.179688 283.628906 C 103.902344 299.789062 97.046875 306.632812 89.214844 309.054688 C 81.28125 311.550781 76.773438 308.964844 75.648438 302.953125 C 73.6875 311.8125 71.390625 319.085938 68.425781 322.96875 C 63.503906 329.316406 61.453125 344.5 62.246094 368.425781 C 62.515625 376.4375 64.230469 386.246094 65.695312 395.679688 C 66.34375 383.4375 71.390625 370.078125 80.535156 355.085938 C 85.210938 347.402344 90.566406 339.757812 98.152344 329.65625 C 99.648438 327.648438 107.800781 317.011719 109.925781 314.121094 C 114.160156 308.464844 117.214844 304.140625 119.683594 300.210938 C 120.195312 299.484375 123.964844 291.714844 126.742188 286.234375 C 127.285156 280.636719 127.183594 277.628906 127.941406 271.386719 C 127.925781 271.246094 127.976562 271.210938 127.996094 271.121094 Z M 535.675781 375.839844 C 532.203125 388.910156 528.761719 402.03125 525.296875 415.054688 C 518.34375 441.191406 516.933594 458.25 520.875 466.332031 C 524.757812 474.445312 525.308594 485.5 522.554688 499.582031 C 519.746094 513.699219 520.640625 522.980469 525.261719 527.5625 C 527.574219 529.851562 529.804688 532.085938 532.113281 534.375 C 530.210938 535.65625 528.261719 536.929688 526.34375 538.257812 C 539.4375 545.601562 550.925781 547.984375 560.46875 542.910156 C 566.625 539.652344 564.058594 512.574219 553.578125 452.636719 C 553.304688 451.203125 553.410156 451.132812 553.148438 449.65625 C 546.128906 409.613281 543.835938 392.199219 543.128906 379.597656 C 540.660156 378.332031 538.144531 377.105469 535.675781 375.839844 Z M 125.894531 297.839844 C 125.457031 298.671875 123.738281 302.289062 123.542969 302.574219 C 121.011719 306.585938 117.828125 311.113281 113.574219 316.855469 C 111.394531 319.785156 103.253906 330.378906 101.765625 332.339844 C 94.285156 342.371094 88.957031 349.882812 84.359375 357.394531 C 72.414062 377.082031 67.613281 393.390625 71.046875 407.808594 C 72.730469 414.714844 76.183594 416.582031 82.359375 414.617188 C 88.191406 412.769531 95.914062 407.613281 105.914062 399.273438 C 108.878906 396.816406 111.882812 394.140625 115.613281 390.824219 C 117.394531 389.242188 125.269531 382.136719 127.320312 380.332031 C 130.117188 377.796875 132.078125 376.25 134.21875 374.460938 C 133.121094 367.855469 131.207031 361.640625 127.789062 356.558594 C 123.410156 350.046875 123.492188 327.992188 125.894531 297.839844 Z M 547.695312 382.101562 C 548.660156 394.566406 551.058594 411.910156 557.605469 448.964844 C 557.832031 450.390625 557.800781 450.335938 558.015625 451.800781 C 569.585938 517.703125 571.820312 542.003906 562.578125 546.953125 C 550.832031 553.164062 537.316406 550.566406 522.082031 541.46875 C 516.199219 545.699219 512.332031 551.839844 510.667969 560.339844 C 509.835938 564.59375 506.648438 568.660156 501.265625 572.433594 C 501.496094 572.894531 501.757812 573.453125 501.953125 573.855469 C 523.953125 617.933594 530.710938 640.039062 519.796875 650.226562 C 504.609375 664.40625 487.773438 665.160156 469.933594 655.277344 C 459.492188 649.417969 449.277344 640.292969 437.984375 627.738281 C 435.039062 624.449219 432.097656 621.160156 428.59375 616.980469 C 428.476562 616.867188 424.46875 611.988281 422.1875 609.289062 C 418.800781 611.339844 415.363281 612.921875 411.984375 615.15625 C 411.503906 615.476562 411.285156 615.664062 410.820312 615.941406 C 410.941406 624.242188 412.394531 633.261719 417.0625 648.660156 C 421.746094 663.96875 423.320312 670.023438 424.125 677.90625 C 424.667969 683.113281 424.484375 687.816406 423.601562 692.332031 C 421.894531 701.515625 415.699219 703.570312 407.390625 699.046875 C 401.03125 695.597656 393.035156 688.285156 383.722656 678.046875 C 373.5625 666.769531 363.734375 653.308594 356.035156 642.605469 C 354.242188 644.003906 352.355469 645.195312 350.859375 647.203125 C 348.28125 650.515625 344.269531 652.445312 339.152344 653.234375 C 339.359375 656.632812 339.054688 658.183594 339.390625 662.339844 C 339.550781 664.117188 339.636719 666.019531 339.859375 668.179688 C 342.789062 702.089844 342.941406 704.140625 339.492188 706.730469 C 338.953125 707.132812 338.429688 707.214844 337.882812 707.425781 C 343.597656 708.777344 349.371094 710.273438 354.871094 711.070312 C 390.46875 716.199219 411.339844 716.695312 417.695312 712.417969 C 423.996094 708.179688 432.433594 707.117188 443.019531 709.191406 C 453.609375 711.214844 466.703125 710.097656 482.21875 705.773438 C 497.675781 701.488281 507.703125 697.015625 512.273438 692.4375 C 516.816406 687.808594 523.515625 686.449219 532.328125 688.175781 C 541.195312 689.863281 564.828125 676.230469 603.433594 647.183594 C 642.039062 618.132812 664.667969 591.527344 671.265625 567.207031 C 677.828125 542.832031 670.214844 516.652344 648.261719 488.539062 C 626.300781 460.46875 612 444.753906 605.292969 441.648438 C 598.597656 438.5 591.039062 429.664062 582.863281 415.28125 C 574.699219 400.855469 564.792969 390.824219 553.175781 384.875 C 551.332031 383.960938 549.496094 383.003906 547.695312 382.101562 Z M 965.382812 523.125 C 956.222656 523.175781 947.445312 525.960938 939.027344 531.625 C 930.5625 537.28125 920.921875 549.1875 910.042969 567.199219 C 899.207031 585.21875 889.550781 596.988281 881.128906 602.652344 C 872.710938 608.3125 867.371094 617.292969 864.953125 629.648438 C 862.496094 641.953125 875.121094 666.492188 902.75 702.976562 C 930.359375 739.507812 957.527344 763.996094 984.351562 776.601562 C 1011.148438 789.109375 1043.441406 797.265625 1081.15625 800.964844 C 1118.863281 804.710938 1151.628906 801.050781 1179.441406 790.027344 C 1207.210938 779 1226.558594 773.632812 1237.445312 773.921875 C 1248.375 774.226562 1264.773438 765.617188 1286.542969 747.894531 C 1297.421875 739.035156 1308.296875 730.21875 1319.136719 721.347656 C 1301.878906 720.730469 1284.628906 720.070312 1267.367188 719.449219 C 1232.855469 718.171875 1199.550781 719.890625 1167.5 724.605469 C 1142.691406 728.261719 1122.285156 727.765625 1104.199219 725.007812 C 1103.597656 726.910156 1102.285156 729.875 1101.875 731.722656 C 1100.382812 738.421875 1100.378906 744.535156 1102.191406 750.777344 C 1107.152344 767.75 1117.746094 770.695312 1144.5625 768.535156 C 1152.824219 767.902344 1163.90625 762.019531 1191.71875 744.886719 C 1191.835938 744.773438 1219.773438 727.9375 1228.507812 724.171875 C 1240.902344 718.871094 1248.878906 719.007812 1251.636719 726.535156 C 1252.046875 727.71875 1251.40625 728.882812 1250.222656 729.292969 C 1249.039062 729.707031 1247.71875 729.171875 1247.304688 727.988281 C 1245.835938 723.976562 1240.492188 724.035156 1230.253906 728.421875 C 1221.824219 732.015625 1213.351562 736.792969 1194.273438 748.511719 C 1194.160156 748.628906 1194.242188 748.691406 1194.082031 748.796875 C 1165.324219 766.53125 1154.304688 772.328125 1144.960938 773.074219 C 1131.230469 774.160156 1124.523438 774.132812 1117.414062 772.148438 C 1107.742188 769.425781 1101.148438 762.941406 1097.914062 751.960938 C 1095.886719 744.945312 1095.839844 738.132812 1097.472656 730.726562 C 1097.882812 728.875 1099.160156 726.089844 1099.746094 724.273438 C 1096.0625 723.597656 1091.628906 723.695312 1088.269531 722.765625 C 1084.175781 721.59375 1080.410156 719.9375 1076.660156 718.195312 C 1074.46875 719.742188 1074.054688 719.984375 1071.496094 721.78125 C 1065.726562 725.894531 1061.296875 729.027344 1057.042969 731.734375 C 1035.699219 745.402344 1021.472656 748.550781 1012.703125 737.453125 C 1006.953125 730.167969 1011.972656 713.679688 1025.714844 684.085938 C 1026.925781 681.429688 1028.171875 678.59375 1029.714844 675.398438 C 1031.679688 671.230469 1030.46875 673.429688 1032.039062 670.105469 C 1028.074219 661.695312 1024.597656 652.191406 1021.707031 642.058594 C 1017.890625 643.933594 1015.9375 644.515625 1010.640625 647.390625 C 1006.695312 649.46875 1003.894531 650.851562 1001.050781 652.226562 C 983.644531 660.824219 972.015625 663.144531 963.742188 657.023438 C 957.316406 652.269531 956.925781 644.375 961.03125 633.5 C 963.929688 625.746094 967.476562 619.359375 977.785156 602.152344 C 978.585938 600.882812 978.828125 600.335938 979.304688 599.554688 C 996.101562 571.527344 1000.8125 558.242188 993.984375 550.144531 C 993.199219 549.210938 993.398438 547.734375 994.34375 546.90625 C 995.328125 546.089844 996.675781 546.257812 997.449219 547.238281 C 1006.21875 557.644531 1001.207031 571.746094 983.164062 601.921875 C 982.699219 602.65625 982.410156 603.199219 981.65625 604.476562 C 962.6875 636.078125 958.398438 647.425781 966.476562 653.371094 C 972.863281 658.113281 983.003906 656.097656 998.980469 648.234375 C 1001.726562 646.886719 1004.632812 645.433594 1008.527344 643.390625 C 1014.53125 640.195312 1016.609375 639.683594 1020.882812 637.578125 C 1017.828125 626.171875 1014.953125 614.53125 1013.222656 601.042969 C 1008.851562 567.21875 1002.089844 545.847656 992.890625 536.691406 C 983.683594 527.582031 974.539062 523.078125 965.382812 523.125 Z M 134.605469 380.46875 C 130.027344 384.355469 126.835938 387.042969 118.664062 394.273438 C 114.925781 397.632812 111.796875 400.238281 108.832031 402.691406 C 98.433594 411.417969 90.386719 416.832031 83.8125 418.949219 C 76.554688 421.253906 71.191406 419.054688 68.246094 412.730469 C 71.179688 427.097656 75.007812 442.5625 80.148438 459.753906 C 91.226562 496.679688 105.957031 528.804688 124.375 556.179688 C 142.78125 583.601562 154.699219 597.886719 159.96875 598.917969 C 165.230469 599.992188 168.054688 604.128906 168.449219 611.519531 C 168.796875 618.898438 191.109375 636 235.265625 662.9375 C 268.867188 683.445312 300.007812 697.488281 328.679688 705.351562 C 326.203125 703.902344 323.738281 702.40625 320.867188 699.683594 C 319.054688 697.90625 317.242188 695.894531 315.285156 693.671875 C 313.179688 691.285156 311.050781 688.753906 309.03125 686.152344 C 308.300781 685.179688 305.792969 682.023438 305.675781 681.90625 C 299.945312 674.304688 293.113281 659.402344 282.539062 634.25 C 279.886719 632.539062 277.417969 631.503906 274.679688 629.542969 C 260.917969 619.722656 245.765625 602.457031 229.84375 581.136719 C 229.09375 583.796875 228.710938 583.859375 227.730469 587.480469 C 227.570312 588.046875 227.675781 587.976562 227.511719 588.589844 C 223.929688 602.1875 221.90625 608.550781 218.945312 614.042969 C 214.742188 621.90625 209.207031 625.054688 202.464844 621.898438 C 185.582031 613.953125 178.578125 588.167969 177.578125 547.921875 C 177.289062 536.003906 177.855469 513.125 178.085938 498.316406 C 175.472656 493.34375 173.070312 488.230469 170.5625 483.1875 C 167.273438 485.671875 163.523438 490.503906 158.617188 498.648438 C 158.414062 498.972656 157.230469 501.039062 156.886719 501.617188 C 147.589844 516.949219 142.503906 522.023438 135.085938 517.628906 C 125.035156 511.664062 127.167969 486.882812 137.503906 439.9375 C 138.820312 433.894531 140.246094 427.78125 142.230469 419.296875 C 137.570312 405.742188 134.890625 395.007812 135.257812 388.183594 C 135.398438 385.359375 134.785156 383.078125 134.605469 380.46875 Z M 145.144531 426.488281 C 143.980469 431.503906 142.816406 436.746094 141.90625 440.933594 C 132.34375 484.402344 130.238281 509.511719 137.40625 513.761719 C 141.320312 516.089844 145.269531 512.128906 153.019531 499.296875 C 153.371094 498.675781 154.546875 496.65625 154.75 496.324219 C 160.050781 487.570312 164.273438 481.726562 168.269531 478.691406 C 165.40625 472.890625 162.160156 467.382812 159.40625 461.464844 C 152.988281 447.519531 149.039062 436.90625 145.144531 426.488281 Z M 182.457031 506.757812 C 182.164062 522.609375 181.792969 538.355469 182.039062 547.921875 C 182.960938 586.449219 189.757812 610.953125 204.414062 617.816406 C 208.582031 619.785156 211.699219 617.957031 214.894531 611.960938 C 217.632812 606.886719 219.625 600.703125 223.144531 587.410156 C 223.300781 586.84375 223.195312 586.917969 223.351562 586.347656 C 224.78125 580.925781 225.609375 580.214844 226.691406 576.796875 C 223.210938 572.023438 219.976562 568.585938 216.371094 563.28125 C 204.265625 545.234375 193.070312 526.308594 182.457031 506.757812 Z M 1034.707031 675.503906 C 1032.511719 680.128906 1030.347656 684.855469 1029.792969 686.035156 C 1017.164062 713.222656 1012.214844 729.589844 1016.230469 734.695312 C 1022.9375 743.179688 1035.128906 740.324219 1054.679688 727.824219 C 1058.835938 725.144531 1063.230469 722.1875 1068.90625 718.101562 C 1070.511719 716.945312 1070.582031 717.050781 1072.074219 716.007812 C 1058.6875 708.746094 1047.4375 697.855469 1038.464844 682.855469 C 1037.117188 680.570312 1035.980469 677.910156 1034.707031 675.503906 Z M 497.257812 574.363281 C 491.675781 577.730469 485.125 580.910156 475.90625 583.84375 C 459.195312 589.125 442.582031 597.1875 426.105469 606.882812 C 428.457031 609.691406 431.980469 614.011719 432.015625 614.0625 C 435.472656 618.234375 438.367188 621.5625 441.273438 624.796875 C 452.261719 637.015625 462.175781 645.804688 472.164062 651.394531 C 488.378906 660.402344 503.058594 659.644531 516.730469 646.867188 C 525.21875 638.964844 518.625 617.210938 497.976562 575.835938 C 497.792969 575.390625 497.488281 574.824219 497.257812 574.363281 Z M 406.289062 618.640625 C 388.804688 629.980469 375.957031 636.664062 369.359375 637.027344 C 365.640625 637.222656 362.230469 638.210938 359.183594 639.914062 C 361.175781 642.644531 362.230469 644.324219 364.605469 647.457031 C 372.242188 657.546875 379.835938 667.125 387.058594 675.113281 C 396.019531 685.007812 403.820312 691.910156 409.601562 695.019531 C 415.457031 698.234375 418.082031 697.273438 419.171875 691.464844 C 419.96875 687.390625 420.121094 683.097656 419.628906 678.3125 C 418.835938 670.847656 417.359375 664.996094 412.800781 649.988281 C 408.421875 635.703125 406.765625 626.78125 406.289062 618.640625 Z M 289.058594 638.285156 C 297.90625 658.867188 304.417969 672.601562 309.382812 679.183594 C 309.488281 679.34375 311.867188 682.476562 312.558594 683.390625 C 314.542969 685.941406 316.542969 688.402344 318.617188 690.738281 C 320.457031 692.84375 322.316406 694.867188 324.101562 696.546875 C 330.171875 702.425781 334.738281 704.699219 336.730469 703.203125 C 337.976562 702.25 337.792969 694.949219 335.480469 668.472656 C 335.257812 666.316406 335.011719 664.519531 334.855469 662.742188 C 334.519531 658.351562 334.765625 656.609375 334.582031 653.078125 C 330.832031 653.21875 327.242188 653.480469 322.367188 652.527344 C 312.273438 650.550781 300.949219 645.210938 289.058594 638.285156 Z M 289.058594 638.285156 " fill-opacity="0.6" fill-rule="evenodd"/></g></g></g></g></g><g clip-path="url(#8b4fa0f871)"><g clip-path="url(#f01d754a2f)"><g clip-path="url(#fffce39f96)"><g clip-path="url(#6d238f0612)"><g clip-path="url(#a42ed7f9db)"><path fill="#ffa264" d="M 1141.121094 310.394531 C 1140.519531 310.949219 1140.082031 311.695312 1139.914062 312.558594 C 1139.597656 314.179688 1140.140625 315.140625 1140.363281 315.527344 C 1141.328125 317.210938 1142.761719 317.835938 1144.617188 317.476562 C 1145.046875 317.398438 1146.285156 317.144531 1147.335938 315.632812 C 1147.730469 315.066406 1148.609375 313.46875 1149.796875 311.074219 C 1153.839844 302.945312 1162.28125 284.671875 1169.296875 269.34375 C 1172.773438 261.75 1177.453125 254.835938 1183.109375 248.839844 C 1188.761719 242.84375 1195.390625 237.769531 1202.769531 233.855469 L 1204.148438 233.125 C 1214.144531 227.820312 1225.164062 225.308594 1236.117188 225.566406 C 1247.066406 225.820312 1257.957031 228.84375 1267.695312 234.609375 L 1267.703125 234.613281 C 1293.515625 249.804688 1318.195312 267.261719 1338.652344 288.019531 C 1359.355469 309.03125 1375.726562 333.429688 1384.46875 362.308594 C 1405.992188 433.4375 1424.316406 477.410156 1420.664062 528.410156 C 1417.691406 569.941406 1400.078125 616.078125 1358.039062 685.445312 C 1348.4375 701.285156 1325.820312 719.660156 1297.273438 736.710938 C 1264.386719 756.351562 1223.617188 774.105469 1185.199219 783.867188 C 1151.234375 792.5 1118.429688 795.816406 1089.257812 795.890625 C 1047.761719 795.992188 1013.648438 789.535156 994.121094 782.421875 C 958.632812 769.496094 929.707031 746.316406 908.414062 720.957031 C 880.035156 687.164062 865.070312 649.566406 866.765625 627.296875 C 870.523438 622.074219 890.140625 594.894531 905.632812 574.839844 C 913.703125 564.390625 920.539062 555.882812 923.246094 553.875 C 926.761719 551.261719 930.671875 547.847656 934.738281 544.003906 C 946.210938 533.175781 959.023438 518.910156 967.773438 510.582031 C 970.734375 507.761719 974.59375 504.988281 974.839844 504.804688 C 976.878906 504.574219 978.4375 502.820312 978.386719 500.730469 C 978.335938 498.519531 976.496094 496.765625 974.285156 496.816406 C 972.605469 496.859375 969.417969 498.386719 965.625 501.683594 C 954.503906 511.351562 933.035156 536.621094 918.46875 547.4375 C 915.542969 549.609375 908.003906 558.65625 899.289062 569.941406 C 882.007812 592.3125 859.613281 623.511719 859.613281 623.511719 C 859.207031 624.078125 858.957031 624.746094 858.882812 625.441406 C 856.488281 648.886719 871.722656 689.726562 902.273438 726.109375 C 924.40625 752.464844 954.496094 776.519531 991.378906 789.953125 C 1011.472656 797.277344 1046.570312 804.011719 1089.277344 803.90625 C 1119.042969 803.832031 1152.519531 800.441406 1187.175781 791.636719 C 1226.320312 781.6875 1267.871094 763.605469 1301.382812 743.59375 C 1331.316406 725.71875 1354.828125 706.207031 1364.894531 689.601562 C 1407.863281 618.699219 1425.621094 571.4375 1428.660156 528.980469 C 1432.375 477.113281 1414.03125 432.328125 1392.136719 359.988281 C 1384.832031 335.84375 1372.453125 314.683594 1356.710938 295.945312 C 1333.753906 268.613281 1303.625 246.453125 1271.78125 227.710938 C 1260.835938 221.234375 1248.605469 217.839844 1236.300781 217.550781 C 1224 217.265625 1211.621094 220.085938 1200.390625 226.046875 L 1199.011719 226.773438 C 1190.859375 231.101562 1183.527344 236.714844 1177.277344 243.339844 C 1171.027344 249.96875 1165.855469 257.613281 1162.011719 266.007812 C 1155.035156 281.246094 1146.640625 299.421875 1142.621094 307.503906 C 1142.050781 308.648438 1141.476562 309.730469 1141.121094 310.394531 Z M 572.523438 367.039062 C 572.59375 366.828125 572.636719 366.597656 572.648438 366.363281 C 572.710938 364.941406 571.613281 363.738281 570.191406 363.671875 C 568.796875 363.609375 567.976562 364.21875 567.476562 364.898438 C 567.042969 365.496094 566.726562 366.375 567.023438 367.578125 C 567.363281 368.957031 569.632812 372.191406 573.726562 376.679688 C 586.019531 390.15625 615.152344 417.566406 646.710938 446.78125 C 661.324219 460.308594 672.019531 474.917969 679.785156 488.382812 C 693.855469 512.796875 698.300781 533.457031 699.011719 537.144531 C 691.378906 561.152344 634.914062 623.714844 571.84375 666.785156 C 533.855469 692.722656 493.449219 711.632812 459.738281 710.386719 C 438.289062 709.59375 389.488281 713.25 333.773438 700.628906 C 296.992188 692.292969 257.171875 676.851562 220.269531 648.265625 C 188.601562 623.738281 151.078125 587.613281 122.023438 553.210938 C 96.992188 523.570312 78.183594 495.304688 75.25 476.957031 C 63.359375 402.5625 77.320312 325.585938 102.882812 260.582031 C 124.445312 205.746094 154.261719 159.425781 183.84375 130.390625 C 202.984375 111.605469 221.9375 100.058594 238.457031 98.492188 C 241.949219 99.503906 265.105469 106.375 287.953125 117.210938 C 298.855469 122.378906 309.695312 128.453125 318.242188 135.238281 C 324.390625 140.113281 332.0625 139.460938 344.675781 148.976562 C 352.34375 154.757812 361.851562 164.402344 374.035156 181.535156 C 374.859375 182.691406 376.46875 182.964844 377.628906 182.136719 C 378.785156 181.3125 379.058594 179.703125 378.234375 178.546875 C 368.5625 164.945312 360.503906 155.933594 353.699219 149.777344 C 343.882812 140.890625 336.601562 137.835938 330.796875 135.644531 C 327.152344 134.273438 324.128906 133.332031 321.445312 131.203125 C 312.609375 124.191406 301.425781 117.894531 290.160156 112.554688 C 264.96875 100.605469 239.402344 93.402344 239.402344 93.402344 C 239.105469 93.320312 238.796875 93.289062 238.488281 93.3125 C 220.953125 94.785156 200.613281 106.714844 180.234375 126.714844 C 150.234375 156.152344 119.949219 203.09375 98.085938 258.695312 C 72.207031 324.511719 58.125 402.449219 70.160156 477.773438 C 73.183594 496.679688 92.289062 525.988281 118.085938 556.535156 C 147.371094 591.210938 185.195312 627.621094 217.113281 652.339844 C 254.679688 681.433594 295.195312 697.171875 332.632812 705.652344 C 388.773438 718.371094 437.9375 714.734375 459.550781 715.535156 C 494.15625 716.816406 535.746094 697.671875 574.75 671.042969 C 639.53125 626.804688 697.109375 562.023438 704.132812 538.011719 C 704.242188 537.640625 704.265625 537.242188 704.199219 536.863281 C 704.199219 536.863281 700.320312 513.691406 684.246094 485.808594 C 676.257812 471.953125 665.25 456.921875 650.210938 443 C 618.789062 413.910156 589.773438 386.625 577.53125 373.207031 C 575.226562 370.675781 573.371094 368.207031 572.523438 367.039062 Z M 985.742188 495.011719 C 984.738281 495.941406 983.714844 496.875 982.671875 497.808594 C 1020.484375 527.367188 1046.445312 545.011719 1060.523438 550.773438 C 1076.121094 557.160156 1097.324219 562.398438 1124.101562 566.515625 C 1150.882812 570.636719 1138.171875 568.621094 1165.683594 563.480469 C 1193.21875 558.316406 1213.183594 546.890625 1225.613281 529.15625 C 1238.042969 511.425781 1244.058594 495.816406 1243.695312 482.289062 C 1243.316406 468.785156 1246.191406 471.21875 1243.085938 455.40625 C 1239.960938 439.617188 1228.613281 416.945312 1209.007812 387.445312 C 1190.074219 358.953125 1150.589844 328.203125 1139.796875 326.175781 C 1134.515625 325.183594 1147.640625 342.929688 1155.289062 349.289062 C 1185.496094 374.425781 1188.5625 372.921875 1204.605469 401.117188 C 1220.648438 429.3125 1229.933594 450.265625 1232.503906 463.933594 C 1235.050781 477.628906 1230.804688 474.050781 1228.996094 487.390625 C 1227.1875 500.734375 1220.597656 514.242188 1209.242188 527.890625 C 1197.863281 541.566406 1181.417969 550.15625 1159.894531 553.683594 C 1138.347656 557.238281 1151.875 558.273438 1120.738281 553.804688 C 1089.578125 549.363281 1063.46875 541.648438 1042.375 530.695312 C 1024.574219 521.480469 1005.707031 509.574219 985.742188 495.011719 Z M 389.589844 203.449219 C 388.628906 202.476562 387.660156 201.488281 386.691406 200.476562 C 358.417969 239.257812 341.65625 265.796875 336.367188 280.058594 C 330.507812 295.863281 325.980469 317.226562 322.761719 344.132812 C 319.542969 371.035156 321.132812 358.261719 327.191406 385.585938 C 333.277344 412.933594 345.363281 432.5 363.503906 444.332031 C 381.644531 456.160156 397.445312 461.648438 410.953125 460.835938 C 424.433594 460.003906 422.097656 462.957031 437.800781 459.324219 C 453.476562 455.667969 475.753906 443.566406 504.578125 422.988281 C 532.421875 403.109375 561.832031 362.613281 563.496094 351.757812 C 564.3125 346.449219 547.015625 360.164062 540.910156 368.019531 C 516.804688 399.050781 518.410156 402.066406 490.769531 419.042969 C 463.128906 436.023438 442.492188 446.003906 428.917969 449.03125 C 415.320312 452.039062 418.753906 447.671875 405.359375 446.3125 C 391.964844 444.953125 378.242188 438.816406 364.222656 427.925781 C 350.171875 417.011719 341.035156 400.867188 336.785156 379.472656 C 332.511719 358.058594 331.933594 371.613281 335.355469 340.339844 C 338.75 309.050781 345.585938 282.695312 355.824219 261.25 C 364.441406 243.148438 375.707031 223.890625 389.589844 203.449219 Z M 389.589844 203.449219 " fill-opacity="1" fill-rule="evenodd"/></g></g></g></g></g></g></g></g></g></svg>
