<svg xmlns="http://www.w3.org/2000/svg" xmlns:xlink="http://www.w3.org/1999/xlink" width="1080" zoomAndPan="magnify" viewBox="0 0 810 809.999993" height="1080" preserveAspectRatio="xMidYMid meet" version="1.0"><defs><clipPath id="62b2dc7e01"><path d="M 62 16.855469 L 748 16.855469 L 748 793 L 62 793 Z M 62 16.855469 " clip-rule="nonzero"/></clipPath></defs><path fill="#ff964f" d="M 165.992188 740.332031 L 353.324219 740.332031 C 354.171875 740.332031 355.011719 740.25 355.84375 740.082031 C 356.675781 739.917969 357.484375 739.671875 358.265625 739.347656 C 359.050781 739.023438 359.792969 738.625 360.5 738.152344 C 361.207031 737.683594 361.859375 737.148438 362.457031 736.546875 C 363.058594 735.949219 363.59375 735.292969 364.0625 734.589844 C 364.535156 733.882812 364.933594 733.140625 365.257812 732.355469 C 365.582031 731.570312 365.828125 730.765625 365.992188 729.933594 C 366.160156 729.101562 366.242188 728.261719 366.242188 727.410156 C 366.242188 726.5625 366.160156 725.722656 365.992188 724.890625 C 365.828125 724.058594 365.582031 723.25 365.257812 722.46875 C 364.933594 721.683594 364.535156 720.941406 364.0625 720.234375 C 363.59375 719.527344 363.058594 718.875 362.457031 718.277344 C 361.859375 717.675781 361.207031 717.140625 360.5 716.671875 C 359.792969 716.199219 359.050781 715.800781 358.265625 715.476562 C 357.484375 715.152344 356.675781 714.90625 355.84375 714.742188 C 355.011719 714.574219 354.171875 714.492188 353.324219 714.492188 L 165.992188 714.492188 C 165.429688 714.492188 164.867188 714.472656 164.304688 714.433594 C 163.742188 714.398438 163.183594 714.339844 162.625 714.265625 C 162.066406 714.191406 161.511719 714.097656 160.957031 713.988281 C 160.40625 713.878906 159.855469 713.75 159.3125 713.601562 C 158.769531 713.457031 158.230469 713.292969 157.695312 713.109375 C 157.164062 712.929688 156.636719 712.730469 156.117188 712.511719 C 155.597656 712.296875 155.082031 712.0625 154.578125 711.8125 C 154.074219 711.5625 153.578125 711.296875 153.089844 711.015625 C 152.601562 710.734375 152.125 710.433594 151.65625 710.121094 C 151.1875 709.808594 150.730469 709.480469 150.285156 709.136719 C 149.835938 708.792969 149.402344 708.433594 148.980469 708.0625 C 148.554688 707.691406 148.144531 707.304688 147.746094 706.90625 C 147.347656 706.507812 146.964844 706.097656 146.59375 705.671875 C 146.222656 705.246094 145.863281 704.8125 145.523438 704.363281 C 145.179688 703.917969 144.851562 703.460938 144.539062 702.992188 C 144.226562 702.523438 143.929688 702.042969 143.648438 701.554688 C 143.367188 701.066406 143.101562 700.570312 142.851562 700.066406 C 142.605469 699.558594 142.371094 699.046875 142.15625 698.523438 C 141.941406 698.003906 141.742188 697.476562 141.5625 696.945312 C 141.382812 696.410156 141.21875 695.871094 141.074219 695.328125 C 140.929688 694.78125 140.800781 694.234375 140.691406 693.679688 C 140.582031 693.128906 140.488281 692.574219 140.417969 692.011719 C 140.34375 691.453125 140.289062 690.894531 140.253906 690.332031 C 140.214844 689.769531 140.199219 689.207031 140.199219 688.644531 C 140.199219 688.082031 140.214844 687.515625 140.253906 686.957031 C 140.289062 686.394531 140.347656 685.832031 140.417969 685.273438 C 140.492188 684.714844 140.585938 684.160156 140.695312 683.605469 C 140.804688 683.054688 140.933594 682.507812 141.078125 681.960938 C 141.226562 681.417969 141.390625 680.878906 141.570312 680.34375 C 141.75 679.8125 141.949219 679.285156 142.164062 678.765625 C 142.382812 678.242188 142.613281 677.730469 142.863281 677.226562 C 143.113281 676.71875 143.378906 676.222656 143.660156 675.734375 L 249.417969 504.054688 C 326.386719 533.121094 367.648438 498.015625 404.242188 466.910156 C 437.21875 438.859375 465.832031 414.523438 519.367188 426.765625 L 666.179688 675.460938 C 666.757812 676.4375 667.269531 677.445312 667.71875 678.488281 C 668.164062 679.53125 668.539062 680.601562 668.84375 681.691406 C 669.152344 682.785156 669.382812 683.894531 669.542969 685.015625 C 669.703125 686.140625 669.789062 687.269531 669.800781 688.40625 C 669.808594 689.539062 669.746094 690.671875 669.609375 691.796875 C 669.472656 692.921875 669.257812 694.035156 668.976562 695.132812 C 668.691406 696.230469 668.335938 697.308594 667.910156 698.359375 C 667.484375 699.410156 666.988281 700.429688 666.429688 701.417969 C 665.867188 702.402344 665.246094 703.347656 664.558594 704.253906 C 663.875 705.160156 663.132812 706.015625 662.335938 706.820312 C 661.539062 707.628906 660.691406 708.378906 659.792969 709.074219 C 658.898438 709.769531 657.957031 710.402344 656.976562 710.976562 C 656 711.546875 654.984375 712.050781 653.9375 712.488281 C 652.890625 712.925781 651.820312 713.296875 650.726562 713.59375 C 649.628906 713.890625 648.519531 714.113281 647.394531 714.265625 C 646.269531 714.414062 645.140625 714.492188 644.003906 714.492188 L 453.269531 714.492188 C 452.421875 714.492188 451.582031 714.574219 450.75 714.742188 C 449.917969 714.90625 449.109375 715.152344 448.324219 715.476562 C 447.542969 715.800781 446.796875 716.199219 446.089844 716.671875 C 445.386719 717.140625 444.734375 717.675781 444.132812 718.277344 C 443.535156 718.875 443 719.527344 442.527344 720.234375 C 442.054688 720.941406 441.65625 721.683594 441.332031 722.46875 C 441.007812 723.25 440.761719 724.058594 440.597656 724.890625 C 440.433594 725.722656 440.351562 726.5625 440.351562 727.410156 C 440.351562 728.261719 440.433594 729.101562 440.597656 729.933594 C 440.761719 730.765625 441.007812 731.570312 441.332031 732.355469 C 441.65625 733.140625 442.054688 733.882812 442.527344 734.589844 C 443 735.292969 443.535156 735.949219 444.132812 736.546875 C 444.734375 737.148438 445.386719 737.683594 446.089844 738.152344 C 446.796875 738.625 447.542969 739.023438 448.324219 739.347656 C 449.109375 739.671875 449.917969 739.917969 450.75 740.082031 C 451.582031 740.25 452.421875 740.332031 453.269531 740.332031 L 644.003906 740.332031 C 646.273438 740.332031 648.535156 740.179688 650.785156 739.882812 C 653.035156 739.585938 655.253906 739.140625 657.445312 738.550781 C 659.636719 737.957031 661.78125 737.226562 663.875 736.351562 C 665.96875 735.480469 668 734.472656 669.960938 733.332031 C 671.921875 732.191406 673.800781 730.929688 675.597656 729.539062 C 677.394531 728.152344 679.089844 726.652344 680.6875 725.039062 C 682.285156 723.429688 683.773438 721.71875 685.144531 719.914062 C 686.515625 718.105469 687.765625 716.214844 688.890625 714.246094 C 690.011719 712.273438 691.003906 710.234375 691.859375 708.132812 C 692.714844 706.03125 693.429688 703.882812 694 701.6875 C 694.574219 699.488281 695 697.265625 695.277344 695.011719 C 695.558594 692.761719 695.6875 690.5 695.667969 688.230469 C 695.648438 685.960938 695.484375 683.703125 695.167969 681.457031 C 694.851562 679.207031 694.386719 676.992188 693.78125 674.804688 C 693.171875 672.617188 692.421875 670.480469 691.53125 668.394531 C 690.644531 666.304688 689.621094 664.285156 688.464844 662.332031 L 538.859375 408.792969 C 537.992188 407.328125 536.882812 406.085938 535.527344 405.0625 C 534.167969 404.039062 532.671875 403.3125 531.027344 402.878906 C 461.117188 384.4375 422.019531 417.722656 387.492188 447.082031 C 350.351562 478.699219 318.230469 505.976562 249.304688 475.988281 C 248.597656 475.679688 247.871094 475.4375 247.121094 475.261719 C 246.371094 475.085938 245.609375 474.976562 244.839844 474.933594 C 244.070312 474.894531 243.300781 474.921875 242.535156 475.019531 C 241.773438 475.113281 241.023438 475.277344 240.285156 475.507812 C 239.550781 475.742188 238.839844 476.035156 238.15625 476.394531 C 237.476562 476.75 236.828125 477.167969 236.222656 477.640625 C 235.613281 478.113281 235.050781 478.636719 234.535156 479.210938 C 234.019531 479.785156 233.5625 480.402344 233.15625 481.058594 L 121.503906 662.378906 C 120.347656 664.332031 119.328125 666.355469 118.441406 668.441406 C 117.554688 670.527344 116.808594 672.664062 116.203125 674.851562 C 115.597656 677.039062 115.136719 679.253906 114.824219 681.5 C 114.507812 683.746094 114.34375 686.003906 114.328125 688.273438 C 114.308594 690.542969 114.441406 692.800781 114.722656 695.050781 C 115.003906 697.304688 115.429688 699.527344 116.003906 701.722656 C 116.578125 703.914062 117.292969 706.0625 118.148438 708.164062 C 119.003906 710.265625 119.996094 712.300781 121.121094 714.269531 C 122.246094 716.242188 123.492188 718.128906 124.867188 719.933594 C 126.238281 721.738281 127.726562 723.449219 129.324219 725.058594 C 130.921875 726.667969 132.617188 728.164062 134.414062 729.550781 C 136.207031 730.9375 138.085938 732.203125 140.046875 733.339844 C 142.011719 734.480469 144.039062 735.488281 146.132812 736.359375 C 148.226562 737.230469 150.367188 737.960938 152.558594 738.550781 C 154.75 739.140625 156.96875 739.585938 159.21875 739.882812 C 161.464844 740.183594 163.726562 740.332031 165.992188 740.332031 Z M 165.992188 740.332031 " fill-opacity="1" fill-rule="nonzero"/><g clip-path="url(#62b2dc7e01)"><path fill="#ff964f" d="M 76.769531 739.683594 C 95.339844 772.210938 128.269531 792.007812 162.875 792.007812 C 163.910156 792.007812 164.960938 792.007812 165.992188 792.007812 L 643.570312 792.007812 C 679.777344 793.1875 714.109375 773.210938 733.230469 739.683594 C 752.347656 706.160156 752.203125 666.304688 732.824219 635.910156 L 508.351562 271.574219 L 508.351562 133.125 L 527.730469 133.125 C 529.636719 133.125 531.535156 133.035156 533.429688 132.847656 C 535.324219 132.660156 537.207031 132.382812 539.074219 132.007812 C 540.941406 131.636719 542.785156 131.175781 544.609375 130.625 C 546.429688 130.070312 548.222656 129.429688 549.980469 128.703125 C 551.738281 127.972656 553.457031 127.160156 555.136719 126.261719 C 556.816406 125.363281 558.449219 124.386719 560.03125 123.328125 C 561.613281 122.269531 563.140625 121.136719 564.613281 119.929688 C 566.085938 118.722656 567.496094 117.445312 568.839844 116.097656 C 570.1875 114.753906 571.464844 113.34375 572.671875 111.871094 C 573.878906 110.398438 575.011719 108.871094 576.070312 107.289062 C 577.128906 105.707031 578.105469 104.074219 579.003906 102.394531 C 579.902344 100.714844 580.714844 98.996094 581.445312 97.238281 C 582.171875 95.480469 582.8125 93.6875 583.367188 91.867188 C 583.917969 90.042969 584.378906 88.199219 584.75 86.332031 C 585.125 84.464844 585.402344 82.582031 585.589844 80.6875 C 585.777344 78.792969 585.867188 76.894531 585.867188 74.988281 C 585.867188 73.085938 585.777344 71.1875 585.589844 69.292969 C 585.402344 67.398438 585.125 65.515625 584.75 63.648438 C 584.378906 61.78125 583.917969 59.9375 583.367188 58.113281 C 582.8125 56.292969 582.171875 54.5 581.445312 52.742188 C 580.714844 50.984375 579.902344 49.265625 579.003906 47.585938 C 578.105469 45.90625 577.128906 44.273438 576.070312 42.691406 C 575.011719 41.109375 573.878906 39.582031 572.671875 38.109375 C 571.464844 36.636719 570.1875 35.226562 568.839844 33.882812 C 567.496094 32.535156 566.085938 31.257812 564.613281 30.050781 C 563.140625 28.84375 561.613281 27.710938 560.03125 26.652344 C 558.449219 25.59375 556.816406 24.617188 555.136719 23.71875 C 553.457031 22.820312 551.738281 22.007812 549.980469 21.277344 C 548.222656 20.550781 546.429688 19.910156 544.609375 19.355469 C 542.785156 18.804688 540.941406 18.34375 539.074219 17.96875 C 537.207031 17.597656 535.324219 17.320312 533.429688 17.132812 C 531.535156 16.945312 529.636719 16.855469 527.730469 16.855469 L 282.265625 16.855469 C 280.363281 16.855469 278.464844 16.945312 276.566406 17.132812 C 274.671875 17.320312 272.792969 17.597656 270.925781 17.96875 C 269.058594 18.34375 267.210938 18.804688 265.390625 19.355469 C 263.570312 19.910156 261.777344 20.550781 260.019531 21.277344 C 258.257812 22.007812 256.539062 22.820312 254.859375 23.71875 C 253.183594 24.617188 251.550781 25.59375 249.96875 26.652344 C 248.382812 27.710938 246.855469 28.84375 245.386719 30.050781 C 243.914062 31.257812 242.503906 32.535156 241.15625 33.882812 C 239.8125 35.226562 238.535156 36.636719 237.328125 38.109375 C 236.117188 39.582031 234.984375 41.109375 233.929688 42.691406 C 232.871094 44.273438 231.890625 45.90625 230.996094 47.585938 C 230.097656 49.265625 229.285156 50.984375 228.554688 52.742188 C 227.828125 54.5 227.1875 56.292969 226.632812 58.113281 C 226.082031 59.9375 225.617188 61.78125 225.246094 63.648438 C 224.875 65.515625 224.597656 67.398438 224.410156 69.292969 C 224.222656 71.1875 224.128906 73.085938 224.128906 74.988281 C 224.128906 76.894531 224.222656 78.792969 224.410156 80.6875 C 224.597656 82.582031 224.875 84.464844 225.246094 86.332031 C 225.617188 88.199219 226.082031 90.042969 226.632812 91.867188 C 227.1875 93.6875 227.828125 95.480469 228.554688 97.238281 C 229.285156 98.996094 230.097656 100.714844 230.996094 102.394531 C 231.890625 104.074219 232.871094 105.707031 233.929688 107.289062 C 234.984375 108.871094 236.117188 110.398438 237.328125 111.871094 C 238.535156 113.34375 239.8125 114.753906 241.15625 116.097656 C 242.503906 117.445312 243.914062 118.722656 245.386719 119.929688 C 246.855469 121.136719 248.382812 122.269531 249.96875 123.328125 C 251.550781 124.386719 253.183594 125.363281 254.859375 126.261719 C 256.539062 127.160156 258.257812 127.972656 260.019531 128.703125 C 261.777344 129.429688 263.570312 130.070312 265.390625 130.625 C 267.210938 131.175781 269.058594 131.636719 270.925781 132.007812 C 272.792969 132.382812 274.671875 132.660156 276.566406 132.847656 C 278.464844 133.035156 280.363281 133.125 282.265625 133.125 L 301.644531 133.125 L 301.644531 271.574219 L 77.304688 635.734375 C 57.792969 666.304688 57.617188 706.144531 76.769531 739.683594 Z M 249.96875 74.988281 C 249.96875 73.933594 250.019531 72.878906 250.125 71.824219 C 250.226562 70.773438 250.382812 69.726562 250.589844 68.6875 C 250.796875 67.652344 251.050781 66.625 251.359375 65.613281 C 251.667969 64.601562 252.023438 63.609375 252.425781 62.628906 C 252.832031 61.652344 253.285156 60.699219 253.78125 59.765625 C 254.28125 58.832031 254.824219 57.925781 255.410156 57.046875 C 256 56.167969 256.628906 55.316406 257.300781 54.5 C 257.972656 53.683594 258.679688 52.898438 259.429688 52.152344 C 260.175781 51.402344 260.960938 50.695312 261.777344 50.023438 C 262.59375 49.351562 263.441406 48.722656 264.324219 48.136719 C 265.203125 47.546875 266.109375 47.003906 267.042969 46.503906 C 267.972656 46.007812 268.929688 45.554688 269.90625 45.152344 C 270.882812 44.746094 271.878906 44.390625 272.890625 44.082031 C 273.902344 43.777344 274.929688 43.519531 275.964844 43.3125 C 277.003906 43.105469 278.046875 42.953125 279.101562 42.847656 C 280.152344 42.742188 281.207031 42.691406 282.265625 42.691406 L 527.730469 42.691406 C 528.789062 42.691406 529.84375 42.742188 530.898438 42.847656 C 531.949219 42.953125 532.996094 43.105469 534.035156 43.3125 C 535.070312 43.519531 536.097656 43.777344 537.109375 44.082031 C 538.121094 44.390625 539.113281 44.746094 540.09375 45.152344 C 541.070312 45.554688 542.023438 46.007812 542.957031 46.503906 C 543.890625 47.003906 544.796875 47.546875 545.675781 48.136719 C 546.554688 48.722656 547.40625 49.351562 548.222656 50.023438 C 549.039062 50.695312 549.824219 51.402344 550.570312 52.152344 C 551.320312 52.898438 552.027344 53.683594 552.699219 54.5 C 553.371094 55.316406 554 56.167969 554.585938 57.046875 C 555.175781 57.925781 555.71875 58.832031 556.214844 59.765625 C 556.714844 60.699219 557.167969 61.652344 557.570312 62.628906 C 557.976562 63.609375 558.332031 64.601562 558.640625 65.613281 C 558.945312 66.625 559.203125 67.652344 559.410156 68.6875 C 559.617188 69.726562 559.769531 70.773438 559.875 71.824219 C 559.980469 72.878906 560.03125 73.933594 560.03125 74.988281 C 560.03125 76.046875 559.980469 77.101562 559.875 78.15625 C 559.769531 79.207031 559.617188 80.253906 559.410156 81.292969 C 559.203125 82.328125 558.945312 83.355469 558.640625 84.367188 C 558.332031 85.378906 557.976562 86.371094 557.570312 87.351562 C 557.167969 88.328125 556.714844 89.28125 556.214844 90.214844 C 555.71875 91.148438 555.175781 92.054688 554.585938 92.933594 C 554 93.8125 553.371094 94.664062 552.699219 95.480469 C 552.027344 96.296875 551.320312 97.082031 550.570312 97.828125 C 549.824219 98.578125 549.039062 99.285156 548.222656 99.957031 C 547.40625 100.628906 546.554688 101.257812 545.675781 101.84375 C 544.796875 102.433594 543.890625 102.976562 542.957031 103.472656 C 542.023438 103.972656 541.070312 104.425781 540.09375 104.828125 C 539.113281 105.234375 538.121094 105.589844 537.109375 105.898438 C 536.097656 106.203125 535.070312 106.460938 534.035156 106.667969 C 532.996094 106.875 531.949219 107.027344 530.898438 107.132812 C 529.84375 107.238281 528.789062 107.289062 527.730469 107.289062 L 282.265625 107.289062 C 281.207031 107.289062 280.152344 107.238281 279.101562 107.132812 C 278.046875 107.027344 277.003906 106.875 275.964844 106.667969 C 274.929688 106.460938 273.902344 106.203125 272.890625 105.898438 C 271.878906 105.589844 270.882812 105.234375 269.90625 104.828125 C 268.929688 104.425781 267.972656 103.972656 267.042969 103.472656 C 266.109375 102.976562 265.203125 102.433594 264.324219 101.84375 C 263.441406 101.257812 262.59375 100.628906 261.777344 99.957031 C 260.960938 99.285156 260.175781 98.578125 259.429688 97.828125 C 258.679688 97.082031 257.972656 96.296875 257.300781 95.480469 C 256.628906 94.664062 256 93.8125 255.410156 92.933594 C 254.824219 92.054688 254.28125 91.148438 253.78125 90.214844 C 253.285156 89.28125 252.832031 88.328125 252.425781 87.351562 C 252.023438 86.371094 251.667969 85.378906 251.359375 84.367188 C 251.050781 83.355469 250.796875 82.328125 250.589844 81.292969 C 250.382812 80.253906 250.226562 79.207031 250.125 78.15625 C 250.019531 77.101562 249.96875 76.046875 249.96875 74.988281 Z M 99.199219 649.460938 L 321.785156 288.15625 L 379.160156 288.15625 C 380.007812 288.15625 380.847656 288.074219 381.679688 287.910156 C 382.511719 287.742188 383.320312 287.5 384.105469 287.175781 C 384.890625 286.851562 385.632812 286.453125 386.339844 285.980469 C 387.042969 285.507812 387.695312 284.972656 388.296875 284.375 C 388.894531 283.773438 389.433594 283.121094 389.902344 282.414062 C 390.375 281.710938 390.773438 280.964844 391.097656 280.183594 C 391.421875 279.398438 391.667969 278.589844 391.832031 277.757812 C 391.996094 276.925781 392.082031 276.085938 392.082031 275.238281 C 392.082031 274.390625 391.996094 273.550781 391.832031 272.71875 C 391.667969 271.886719 391.421875 271.078125 391.097656 270.292969 C 390.773438 269.511719 390.375 268.765625 389.902344 268.0625 C 389.433594 267.355469 388.894531 266.703125 388.296875 266.101562 C 387.695312 265.503906 387.042969 264.96875 386.339844 264.496094 C 385.632812 264.023438 384.890625 263.628906 384.105469 263.300781 C 383.320312 262.976562 382.511719 262.734375 381.679688 262.566406 C 380.847656 262.402344 380.007812 262.320312 379.160156 262.320312 L 327.484375 262.320312 L 327.484375 236.480469 L 353.324219 236.480469 C 354.171875 236.480469 355.011719 236.398438 355.84375 236.234375 C 356.675781 236.066406 357.484375 235.820312 358.265625 235.496094 C 359.050781 235.171875 359.792969 234.773438 360.5 234.304688 C 361.207031 233.832031 361.859375 233.296875 362.457031 232.695312 C 363.058594 232.097656 363.59375 231.445312 364.0625 230.738281 C 364.535156 230.035156 364.933594 229.289062 365.257812 228.503906 C 365.582031 227.722656 365.828125 226.914062 365.992188 226.082031 C 366.160156 225.25 366.242188 224.410156 366.242188 223.5625 C 366.242188 222.714844 366.160156 221.871094 365.992188 221.042969 C 365.828125 220.210938 365.582031 219.402344 365.257812 218.617188 C 364.933594 217.832031 364.535156 217.089844 364.0625 216.382812 C 363.59375 215.679688 363.058594 215.027344 362.457031 214.425781 C 361.859375 213.828125 361.207031 213.289062 360.5 212.820312 C 359.792969 212.347656 359.050781 211.949219 358.265625 211.625 C 357.484375 211.300781 356.675781 211.054688 355.84375 210.890625 C 355.011719 210.726562 354.171875 210.640625 353.324219 210.640625 L 327.484375 210.640625 L 327.484375 184.804688 L 379.160156 184.804688 C 380.007812 184.804688 380.847656 184.722656 381.679688 184.554688 C 382.511719 184.390625 383.320312 184.144531 384.105469 183.820312 C 384.890625 183.496094 385.632812 183.097656 386.339844 182.625 C 387.042969 182.15625 387.695312 181.621094 388.296875 181.019531 C 388.894531 180.421875 389.433594 179.765625 389.902344 179.0625 C 390.375 178.355469 390.773438 177.613281 391.097656 176.828125 C 391.421875 176.042969 391.667969 175.238281 391.832031 174.40625 C 391.996094 173.574219 392.082031 172.734375 392.082031 171.882812 C 392.082031 171.035156 391.996094 170.195312 391.832031 169.363281 C 391.667969 168.53125 391.421875 167.722656 391.097656 166.941406 C 390.773438 166.15625 390.375 165.414062 389.902344 164.707031 C 389.433594 164 388.894531 163.347656 388.296875 162.75 C 387.695312 162.148438 387.042969 161.613281 386.339844 161.140625 C 385.632812 160.671875 384.890625 160.273438 384.105469 159.949219 C 383.320312 159.625 382.511719 159.378906 381.679688 159.214844 C 380.847656 159.046875 380.007812 158.964844 379.160156 158.964844 L 327.484375 158.964844 L 327.484375 133.125 L 482.515625 133.125 L 482.515625 275.238281 C 482.515625 277.679688 483.15625 279.941406 484.4375 282.019531 L 710.910156 649.636719 C 725.21875 672.070312 725.171875 701.671875 710.796875 726.863281 C 696.425781 752.054688 671.183594 767.105469 644.003906 766.167969 L 165.558594 766.167969 C 138.75 767.042969 113.574219 752.007812 99.21875 726.847656 C 84.859375 701.6875 84.78125 672.070312 99.199219 649.460938 Z M 99.199219 649.460938 " fill-opacity="1" fill-rule="nonzero"/></g><path fill="#ff964f" d="M 417.917969 727.410156 C 417.917969 728.261719 417.835938 729.101562 417.671875 729.933594 C 417.503906 730.765625 417.261719 731.570312 416.933594 732.355469 C 416.609375 733.140625 416.210938 733.882812 415.742188 734.589844 C 415.269531 735.292969 414.734375 735.949219 414.136719 736.546875 C 413.535156 737.148438 412.882812 737.683594 412.175781 738.152344 C 411.472656 738.625 410.726562 739.023438 409.945312 739.347656 C 409.160156 739.671875 408.351562 739.917969 407.519531 740.082031 C 406.6875 740.25 405.847656 740.332031 405 740.332031 C 404.152344 740.332031 403.3125 740.25 402.480469 740.082031 C 401.648438 739.917969 400.839844 739.671875 400.054688 739.347656 C 399.273438 739.023438 398.527344 738.625 397.820312 738.152344 C 397.117188 737.683594 396.464844 737.148438 395.863281 736.546875 C 395.265625 735.949219 394.730469 735.292969 394.257812 734.589844 C 393.785156 733.882812 393.386719 733.140625 393.0625 732.355469 C 392.738281 731.570312 392.492188 730.765625 392.328125 729.933594 C 392.164062 729.101562 392.082031 728.261719 392.082031 727.410156 C 392.082031 726.5625 392.164062 725.722656 392.328125 724.890625 C 392.492188 724.058594 392.738281 723.25 393.0625 722.46875 C 393.386719 721.683594 393.785156 720.941406 394.257812 720.234375 C 394.730469 719.527344 395.265625 718.875 395.863281 718.277344 C 396.464844 717.675781 397.117188 717.140625 397.820312 716.671875 C 398.527344 716.199219 399.273438 715.800781 400.054688 715.476562 C 400.839844 715.152344 401.648438 714.90625 402.480469 714.742188 C 403.3125 714.574219 404.152344 714.492188 405 714.492188 C 405.847656 714.492188 406.6875 714.574219 407.519531 714.742188 C 408.351562 714.90625 409.160156 715.152344 409.945312 715.476562 C 410.726562 715.800781 411.472656 716.199219 412.175781 716.671875 C 412.882812 717.140625 413.535156 717.675781 414.136719 718.277344 C 414.734375 718.875 415.269531 719.527344 415.742188 720.234375 C 416.210938 720.941406 416.609375 721.683594 416.933594 722.46875 C 417.261719 723.25 417.503906 724.058594 417.671875 724.890625 C 417.835938 725.722656 417.917969 726.5625 417.917969 727.410156 Z M 417.917969 727.410156 " fill-opacity="1" fill-rule="nonzero"/></svg>